<svg height="64" width="64" xmlns="http://www.w3.org/2000/svg">
  <rect height="36" opacity=".2" rx="2.8" width="56" x="4" y="22" />
  <path d="m6.8 7c-1.55 0-2.8 1.25-2.8 2.8v36.4c0 1.55 1.25 2.8 2.8 2.8h50.4c1.55 0 2.8-1.25 2.8-2.8v-30.4c0-1.55-1.25-2.8-2.8-2.8h-27.2v-3.2c0-1.555-1.25-2.8-2.8-2.8z" fill="#12806a" />
  <rect height="36" opacity=".2" rx="2.8" width="56" x="4" y="20" />
  <rect fill="#e4e4e4" height="22" rx="2.8" width="48" x="8" y="16" />
  <rect fill="#16a085" height="36" rx="2.8" width="56" x="4" y="21" />
  <path d="m6.8 7c-1.55 0-2.8 1.25-2.8 2.8v1c0-1.55 1.25-2.8 2.8-2.8h20.4c1.55 0 2.8 1.2458 2.8 2.8v-1c0-1.5542-1.25-2.8-2.8-2.8zm23.2 6v1h27.2c1.545 0 2.8 1.25 2.8 2.8v-1c0-1.55-1.25-2.8-2.8-2.8z" fill="#fff" opacity=".1" />
  <path d="m23.424556 52.195481c-4.223099-1.114567-8.074212-3.521764-8.074212-5.046907 0-.178763.510079-1.584847 1.133503-3.124627.623423-1.539784 1.190842-3.182066 1.260931-3.649522.07009-.467453.183387-1.185152.251775-1.594884l.124336-.74497-1.150057.787466c-1.275418.873297-1.630128.947803-2.130434.447497-.727105-.727101-.413523-1.227015 1.579534-2.518126 1.381714-.895078 1.61588-1.116765 1.788597-1.693229.292839-.977417 1.093288-1.984408 2.26025-2.843476l1.033171-.760577-.483554-.184364c-.269774-.102851-.809839-.135639-1.221568-.07416-.898625.134195-.838397-.06339.313051-1.027033 1.216105-1.017751 2.274533-1.422183 4.052184-1.548364.856496-.0608 1.557273-.168776 1.557273-.239958 0-.138425-.766358-.799612-1.294605-1.116942-.279163-.167699-.191052-.230316.686913-.488164 1.340545-.3937 2.534346-.263266 3.783674.413399.530193.287165 1.014789.522118 1.076881.522118.06209 0 .206732-.313229.321433-.696063.270869-.904079 1.422988-2.053636 2.329745-2.324569 1.226467-.366458 1.567577-.282955 2.42491.593612.763899.78103.773604.804075.360098.855008-.916461.112885-1.138913.220043-1.330723.641025-.109524.240368-.199125.625569-.199125.856002 0 .399896.03291.413074.722427.289472 1.132024-.202916 3.519294-.141352 4.547054.117261l.934909.23525-.59494.241397c-.582995.236547-1.359866.842709-1.359866 1.061049 0 .06069.478079.199257 1.062395.307923 1.309376.243503 2.936696 1.025994 3.613766 1.737665l.508332.534311-.594946-.03212c-.327218-.01766-.824419-.02194-1.104893-.0095l-.509945.02259.491377.43201c.358641.315312.604329.403662.909523.327062.954847-.239651 2.260705.665393 2.501028 1.733367.08864.39391.419785.635999 2.011701 1.470689 2.30474 1.208438 2.500545 1.369188 2.500545 2.052888 0 1.259395-.820248 1.240295-3.077982-.07168-1.304599-.758104-1.800839-.968192-1.965039-.831919-.175751.14586-.153797.238196.109792.461788.40619.34455 1.023608 1.899856 1.023608 2.57851 0 .275895.535447 1.842073 1.189881 3.480398.654441 1.638326 1.189887 3.176405 1.189887 3.417954 0 1.885594-6.110927 5.084073-10.114013 5.29371-1.835398.09612-2.206446-.105868-2.696169-1.467742-.291471-.810565-.351268-.869545-.881559-.869545-.312882 0-.936259.197235-1.38529.438301-.953105.511686-1.852255.482293-2.620453-.08566-.286875-.212096-.735789-.352642-1.126368-.352642-.624274 0-.66235.03364-.984285.869606-.484054 1.256922-.884617 1.51218-2.355123 1.500802-.665199-.0052-1.744905-.150678-2.399339-.323397zm3.857975-.474665c.30344-.352563 2.346421-5.33639 2.346421-5.724066 0-.494522-.60302-.274099-1.35987.497076-.412894.420709-.811285.764926-.885306.764926-.07403 0-.134592-.384863-.134592-.85525 0-.980011-.336333-1.276501-.840256-.740715-.314932.33485-2.389431 5.345798-2.389431 5.771678 0 .134121.154112.243856.342467.243856.405269 0 .83859-.658354 1.389163-2.110585.309929-.817475.402822-.945085.443445-.60915.107157.886258.186677.930672.73301.409453l.518269-.494444-.434445 1.157379c-.238943.63656-.481201 1.23304-.538353 1.325511-.152149.246185.04847.661803.319493.661803.128681 0 .349178-.133862.489985-.297472zm10.788403.03133c.102694-.267616-.62979-2.377961-1.072868-3.091027-.374008-.601908-.793477-.499943-.699273.169984.04276.303846.135774.686309.206767.849916.07543.173832.05662.297472-.0452.297472-.267899 0-.889533-1.104781-.998107-1.773854-.08604-.530171-.04642-.617145.34952-.767689.554517-.210827.593083-.795981.09425-1.430143-.453125-.576051-1.079252-.585943-1.448186-.02288-.725602 1.107405.808907 4.973449 2.294651 5.781149.589098.320253 1.192886.314332 1.318468-.01294zm1.187522-.163827c.111879-.291567-1.879561-5.438485-2.283566-5.901908-.313245-.359317-.526069-.378786-.648652-.05934-.0947.246794 1.776225 5.132412 2.231558 5.827336.298402.455422.558227.505081.70066.133913zm2.019815-.326284c.475661-.198746.589483-.339135.589483-.727104 0-.756812-.460412-1.288782-1.018773-1.177109-.450446.09009-.4693.06403-.571955-.790477-.05838-.486-.10681-1.287675-.107629-1.781507-.0018-1.118543-.376715-2.076837-.812437-2.076837-.618594 0-1.908772.53919-1.908772.79771 0 .140692.126759.52293.281685.849418.250098.527041.343835.586359.835829.528922.496561-.05797.564431-.01323.653217.430728.05452.27248.09908 1.101597.09908 1.84248 0 2.194182.488685 2.718643 1.960268 2.103776zm-17.455138-1.004209c.443439-.657569 1.39846-2.772596 1.91063-4.231344.161911-.461139.172396-.688699.03792-.823167-.390515-.39052-.833656.180955-1.636477 2.110424-.784816 1.88619-1.205287 2.443996-1.420175 1.884022-.05592-.145773.214684-1.06622.601377-2.045437.820126-2.07676.893018-2.663926.320624-2.582632-.317589.04511-.533407.429136-1.272377 2.264102-.919415 2.283032-1.12126 3.474252-.682434 4.027558.526506.663853 1.464565.399412 2.140908-.603526zm19.175381.139495c.0551-.143603-.119401-.848861-.387795-1.567235-.268399-.718378-.515048-1.384932-.548115-1.481234-.03308-.0963.06688-.0029.222115.207371.380474.515569.738561.482466.804125-.07434.0442-.375385.146784-.231484.575579.807375.507633 1.229858.97807 1.676693 1.188343 1.128727.10265-.267482-1.785368-5.229635-2.231329-5.864474-.227445-.323782-.318405-.354013-.53194-.176794-.203599.168971-.233654.428943-.143417 1.240483l.114165 1.026711-.760323-.74226c-.759711-.74166-1.132-.80249-1.132-.184965 0 .366876 1.972105 5.397492 2.245985 5.729255.236502.286487.463254.267628.584607-.04862zm-22.321944-.546322c.129502-.257099.284232-.839851.343842-1.295001.07856-.599811.249457-.971843.621018-1.351885.657102-.6721 1.145013-2.15116.920352-2.78998-.174987-.497572-1.132682-1.234983-1.603905-1.234983-.31488 0-.663148.695509-1.864108 3.722704-.706444 1.780682-.819357 2.651673-.343754 2.651673.144017 0 .494603-.480817.805621-1.104891.302853-.60769.518042-.913661.478202-.679934-.170584 1.000631-.252102 2.334929-.148951 2.438079.238675.238675.566458.09137.791683-.355782zm-.132309-3.761321c.06277-.151681.152632-.409646.199673-.573256.102885-.357816.276943-.378536.537951-.06404.275819.332347.06732.737388-.428364.832142-.339601.06492-.400808.02635-.30926-.194846zm12.322189 3.761321c.373781-.334.550603-.672345.61937-1.185139.08763-.653516.04263-.771298-.503451-1.31737-.494831-.494832-.723831-.599688-1.309696-.599688-.997216 0-1.703754.704126-1.703754 1.697933 0 .865555.209285 1.279832.811692 1.606748.738754.400907 1.492466.32774 2.085839-.202484zm-3.538854-.823051c-.0615-.321715-.123227-.379045-.228796-.212479-.217449.34308-.178703.653067.08162.653067.157355 0 .204449-.140977.147173-.440588zm5.122361.185614c-.05383-.140236-.166151-.254976-.249643-.254976-.08349 0-.151793.11474-.151793.254976 0 .140235.112336.254974.249637.254974.152067 0 .211398-.09965.151799-.254974zm12.24324-.913827c.416534-.46026.518497-1.397306.282548-2.596596-.557406-2.833259-2.167666-4.63287-3.16215-3.533985-.947582 1.04707.300895 5.39304 1.780378 6.197491.587619.319515.758954.309084 1.099224-.06691zm-1.21784-1.674429c-.610638-.21904-1.192479-2.557901-.710439-2.855814.41534-.256695 1.3409 1.219516 1.348687 2.151076.004.490879-.299597.826214-.638248.704738zm-27.34968.983568c.814447-.901494 1.113495-1.52255 1.403988-2.915749.191092-.916502.203394-1.339804.05598-1.925343-.236229-.938132-.890419-1.613028-1.310704-1.35218-.343789.21337-2.241483 4.640097-2.365771 5.518593-.07316.517106-.01503.666431.38028.977406.685445.539172 1.14393.463586 1.836249-.302727zm-.905512-1.453225c0-.16519.903654-2.385047 1.028338-2.526153.202563-.229236.374259.543461.258212 1.162031-.123013.655733-.693967 1.447324-1.043913 1.447324-.133451 0-.242637-.03744-.242637-.0832zm13.428684.168195c.555577-.317597 1.49165-.317131 2.10173.000933.267787.139659.514494.253926.548237.253926.172151 0-.329791-.94464-.603992-1.136696-.174789-.122432-.449311-.566944-.610039-.987812-.160733-.420838-.352409-.765182-.425946-.765182-.07354 0-.22423.274286-.334866.609522-.110644.335236-.409637.85156-.664435 1.147387-.482797.560526-.76825 1.137163-.557802 1.126784.06719-.0034.313389-.115339.547113-.24895zm-.229501-1.535941c.362393-.495604.27575-.600165-.407937-.492305-1.484898.234258-6.094657-1.171728-8.526958-2.600738-.599601-.352276-1.487719-1.001763-1.973591-1.443306-.914562-.831118-1.100815-.863025-1.100815-.188576 0 1.212802 4.266383 3.751105 7.80448 4.64331 1.821763.459396 2.02871.489155 3.057432.439649.66048-.03179.982246-.132189 1.147389-.358034zm5.541416.189547c4.130248-.790246 8.966687-3.483728 8.966687-4.993672 0-.59662-.21502-.53203-1.201897.361045-1.235576 1.118134-3.463965 2.30311-5.774308 3.070571-1.82581.606509-4.36792 1.072418-4.847401.888423-.451594-.173292-.211533.454154.266243.695879.5479.277208 1.048019.272913 2.590676-.02225zm-5.407971-1.454125c.621426-.236265.545361-.692906-.245921-1.476353-1.35136-1.337985-4.89982-3.094415-7.480204-3.702582-1.306475-.30792-3.415858-.34759-3.693979-.06947-.523616.523618.972788 1.953679 3.324643 3.17725 1.839453.956986 3.3848 1.530338 5.131819 1.903987 1.677903.358868 2.358468.397258 2.963642.16717zm6.367955-.443248c2.737507-.774124 6.472172-2.867093 7.259131-4.068143.234353-.357666.242112-.467081.04956-.699049-.379482-.457249-3.083293-.228663-5.052096.427116-2.191092.729819-4.795212 2.104824-5.901893 3.116265-1.474391 1.347511-1.14602 1.91087 1.010514 1.733672.644818-.05298 1.830453-.28242 2.634747-.509861zm-4.640903-1.283489c.178098-.199465.905563-.77177 1.616586-1.271788 1.141466-.802722 1.348763-1.03383 1.771168-1.974608.780569-1.738479.736371-3.523182-.09377-3.786659-.203243-.0645-.34835-.34095-.42678-.813074-.330619-1.990205-1.499164-2.655035-3.059453-1.740642l-.71591.419552-.31852-.351963c-.741724-.819595-2.016991-1.073297-2.764219-.549917-.44489.311611-.869783 1.202509-.869783 1.823715 0 .296886-.117864.441571-.421869.517871-.232023.05823-.537998.330453-.679935.604928-.309691.598878-.3248 2.501534-.02773 3.490639.181569.604528.345069.755753 1.474286 1.363617 1.531643.824486 2.656374 1.590637 3.212015 2.187975.500323.537862.874785.56094 1.303895.08036zm-2.186083-1.853412c-.868448-.216377-1.831769-.72702-2.281906-1.209614-.472948-.507046-.778002-1.850287-.635709-2.799176l.110006-.733559.576458.439687c.490299.37397.576785.544646.578649 1.14194.0011.386239.185133 1.084717.408741 1.552171l.406556.849918-.02575-1.218739c-.01415-.670307.01224-1.253857.05871-1.296777.04648-.04291.868512-.03883 1.826795.0091l1.74233.08712v.635835c0 .34971-.111351.951424-.247436 1.337141-.13609.385718-.201885.701306-.146224.701306.31965 0 1.243579-1.699654 1.243579-2.287691 0-.330519.187906-.548376.803444-.931493.441889-.275042.821267-.482253.843052-.460467.02179.02179-.07538.532491-.215907 1.1349-.344359 1.476131-.927184 2.427288-1.722264 2.810698-.735538.354694-2.381131.472408-3.323117.237712zm.385103-3.627538c0-.0353.116489-.160856.25887-.279017.216448-.179637.24132-.16912.151794.06417-.09144.238273-.410664.405279-.410664.214841zm-.984453-1.069229c-.729545-.359561-1.299597-1.070106-1.054857-1.314842.126974-.126971.407389-.05971.949085.227661.781904.414799 1.188937.903452 1.003064 1.204201-.136678.221147-.237947.20794-.897292-.11702zm.625952-.333789c-.147285-.177464-.256931-.195147-.389298-.06279-.132367.132364-.115138.22699.06117.335954.345553.213563.57414.02326.328126-.273173zm1.888356.391934c0-.458262 1.205713-1.304505 1.858639-1.304505.397272 0 .420203.06329.18331.505932-.376727.703915-2.041949 1.355158-2.041949.798573zm.812908-.258343c.04869-.146294-.03302-.207549-.226804-.169984-.166628.0323-.337229.161651-.379115.287443-.04869.146292.03302.207549.226804.169984.166623-.03231.33723-.161651.379115-.287443zm-15.329714 2.898401c1.573512-1.125056 1.845895-1.387342 1.805662-1.738715-.02604-.227588-.102559-.468024-.169983-.534304-.06744-.06628-1.002266.45855-2.077411 1.166291-1.83887 1.210479-2.200878 1.502763-2.207181 1.78207-.0035.156962.499823.64958.663749.64958.07267 0 .965989-.596215 1.985164-1.324922zm31.566467.455613c.09502-.150901.128453-.389831.0743-.530957-.09233-.240608-3.826958-2.264351-3.95056-2.14075-.0314.03138-.108368.261506-.171078.511391-.107897.429852-.01934.510028 1.643519 1.487708.966653.568351 1.864091 1.01393 1.994309.990171.130212-.02376.314496-.166661.409509-.317563zm-4.510092-2.274824c.460132-1.36994-.347965-2.805286-1.579377-2.805286-1.289152 0-2.530733 1.04287-2.422032 2.03439.03379.307848.189223.460373.583961.572884.297901.08491.575253.295924.621525.472863.06035.230786.241413.321033.651919.324936.312596.003.716572.117515.897716.254537.45478.343999.960159-.0025 1.246288-.854324zm-23.52557.278804c.180509-.199461.434858-.287044.691258-.23803.29941.05725.481498-.03819.695208-.364356.159249-.243047.431044-.441904.60398-.441904.432255 0 .705-.558358.513517-1.051266-.425586-1.09553-1.895848-1.814441-2.871652-1.404147-1.218567.512367-1.619073 2.465889-.706397 3.445533.421649.452583.700782.466662 1.074086.05417zm19.828546-2.66324c.118259-.142496.184994-.285413.148297-.317595-.03669-.03218-1.634816-.884207-3.551376-1.893388-1.916566-1.009183-3.690449-2.023588-3.941968-2.254235-.534106-.489787-1.040336-.403471-.956978.163172.03395.230694.237562.430635.541055.531268.267648.08874 1.98852 1.031774 3.824157 2.095611 1.835642 1.063838 3.423989 1.934251 3.529662 1.934251.105666 0 .288891-.116588.407151-.259084zm-13.964818-2.434714c1.572061-1.111665 3.080836-2.127875 3.35284-2.258243.298863-.14324.494558-.369728.494558-.572382 0-.509934-.60436-.535809-1.012134-.04333-.191255.230982-1.571618 1.215402-3.067468 2.187598-3.8083 2.47512-3.580285 2.295193-3.314506 2.61543.123351.148635.328713.230171.456351.18119.127645-.04898 1.518305-.998599 3.090359-2.110264z" fill="#08382e" stroke-width=".169984" />
</svg>
