<svg viewBox="0 0 48 48" xmlns="http://www.w3.org/2000/svg" xmlns:xlink="http://www.w3.org/1999/xlink">
  <linearGradient id="a" gradientTransform="matrix(.3814035 0 0 .38251092 13.970497 -57.061641)" gradientUnits="userSpaceOnUse" x1="18.600121" x2="20.03326" y1="261.26111" y2="155.5882">
    <stop offset="0" stop-color="#ac0526" />
    <stop offset="1" stop-color="#c90526" />
  </linearGradient>
  <rect fill="url(#a)" height="42.095551" ry="3.300976" stroke-width=".381957" width="42.226444" x="2.042979" y="2.104825" />
  <g fill="#fff" stroke-width=".271649">
    <g transform="matrix(.94653109 0 0 .94653109 2.230184 .542407)">
      <path d="m5.9838709 17.142452h3.6608745v.832981h-4.6848583v-7.724975h1.0239838z" />
      <path d="m11.719241 17.975433h-.981539v-5.740675h.981539zm-1.061123-7.263387q0-.238753.143251-.403227.148558-.164474.435061-.164474.286503 0 .43506.164474.148558.164474.148558.403227 0 .238753-.148558.397921-.148557.159169-.43506.159169-.286503 0-.435061-.159169-.143251-.159168-.143251-.397921z" />
      <path d="m14.218186 12.234758.03183.721563q.657897-.827676 1.71902-.827676 1.819826 0 1.835743 2.053273v3.793515h-.981539v-3.79882q-.0053-.620757-.286503-.917872-.275892-.297114-.864816-.297114-.477505 0-.838287.254669-.360782.25467-.562395.668508v4.090629h-.981539v-5.740675z" />
    </g>
    <g transform="matrix(.41530451 0 0 .41530451 17.842906 36.612523)">
      <path d="m160.97 299.28h-87.21l47.46-60.02h87.21l-10.76 13.62h35.76l-5.52 6.98h-35.76l-14.39 18.18h35.63l-5.52 6.98h-35.63z" fill="#fff" transform="matrix(.25 0 0 .25 -35.146765 -74.368591)" />
      <path d="m264.88 248.18h-43.59l7.06-8.92h58.53 40.91l-47.47 60.02-98.69.01 7.06-9.06h42.94l13.41-16.96h-36.83l6.29-7.95h36.83z" fill="#fff" transform="matrix(.25 0 0 .25 -35.146765 -74.368591)" />
      <g stroke-width=".25">
        <path d="m25.998235-39.591091h31.309998l.0425 5.525h-1.5q-.73-2.8275-4.209998-3.83-1.955-.5475-5.84-.6v13.8125c0 .9675.325 1.35 1 1.665s2.075.355 4.1875.355v1.1775h-18.5425v-1.1775q3.045 0 4.0375-.47c.6825-.3275 1.015-.595 1.015-1.55v-13.8125q-3.8025.0475-5.835.6-3.75 1.025-4.2175 3.83h-1.5z" fill="#fff" fill-rule="evenodd" />
        <path d="m1.4057353-30.208591 2.8175.3675.045.1a10.33 10.33 0 0 0 5.4125 5.1975c2.5199997 1.0875 5.4424997 1.6375 8.6899997 1.6375 3.155 0 5.4175-.37 6.725-1.105s1.915-1.47 1.915-2.225c0-.885-.6725-1.625-2-2.2-.935-.4025-2.825-.93-5.6175-1.5625l-4.56-1.0525c-4.5275-1.0425-7.7499997-2.09-9.6099997-3.11-1.9125-1.05-2.8825-2.3775-2.8825-3.945 0-1.6625 1.27-3.22 3.775-4.63s6.3224997-2.0975 11.4024997-2.0975a50.19 50.19 0 0 1 7.5.5475c1.5675.23 3.7.5375 4.1175.5375.915 0 1.3175-.145 1.5-.2675a2.1825 2.1825 0 0 0 .66-.75l.0575-.1025h2.4125v7.5h-2.27l-.0575-.1025c-.9125-1.6-2.555-3-4.885-4.1675s-5.17-1.75-8.5-1.75c-2.34 0-4.215.2975-5.5725.8875-1.285.555-1.935 1.2275-1.935 2 0 .945.595 1.64 1.825 2.12 1.2875.5225 4.1475 1.2875 8.5 2.28l5.28 1.215c2.35.5375 4.25 1.145 5.655 1.8075 2.6725 1.265 4.0275 2.835 4.0275 4.67 0 1.72-1.455 3.3475-4.325 4.8375-2.805 1.465-7.355 2.205-13.5275 2.205-1.4225 0-2.88-.0625-4.335-.19s-2.9175-.3075-4.2999997-.56l-1.375-.25c-.3375-.0425-.6275-.0725-.8975-.09a6.57 6.57 0 0 0 -.75-.0475c-.6825 0-1.15.0875-1.39.2625a2.295 2.295 0 0 0 -.66.765l-.0575.1h-2.7975z" fill="#fff" fill-rule="evenodd" />
        <path d="m33.553235-44.676091v7.095h-1.95q-1.405-2.4675-4.97-4.25-3.565-1.7825-8.6025-1.7875-3.5675 0-5.6525.905c-1.375.595-2.0575 1.3225-2.0575 2.1825 0 1.025.65 1.7975 1.9525 2.3075s4.1225 1.285 8.5325 2.2875l5.28 1.215q3.53.8075 5.615 1.795c2.6 1.2325 3.91 2.725 3.91 4.4875 0 1.6425-1.41 3.2-4.215 4.66s-7.2675 2.1825-13.435 2.1825c-1.415 0-2.8575-.065-4.3175-.1925a42.5 42.5 0 0 1 -4.2899997-.55l-1.375-.25c-.315-.0425-.62-.075-.92-.095a7.145 7.145 0 0 0 -.75-.0475c-.7325 0-1.2325.1-1.5.3025a2.5 2.5 0 0 0 -.715.8275h-2.48v-8.3775l2.48.3225a10.485 10.485 0 0 0 5.51 5.2875q3.8349997 1.6525 8.7699997 1.655 4.8 0 6.8225-1.1325c1.3425-.75 2.02-1.56 2.02-2.4 0-.975-.71-1.7725-2.125-2.3825-.9375-.405-2.8175-.9325-5.6525-1.5775l-4.56-1.05q-6.7799997-1.565-9.5574997-3.09-2.7775-1.525-2.78-3.77 0-2.39 3.6725-4.4525 3.6725-2.0625 11.3024997-2.05a49.9175 49.9175 0 0 1 7.4675.5425c2.4225.3575 3.805.5425 4.1475.5425q1.1675 0 1.61-.3025a2.38 2.38 0 0 0 .72-.8275h2.0925m.4025-.4025h-2.735l-.1175.1975a1.95 1.95 0 0 1 -.6.69c-.1225.085-.4675.23-1.3775.23-.4525 0-3.19-.405-4.09-.5375a50.5375 50.5375 0 0 0 -7.525-.5475c-5.1125 0-8.9824997.715-11.4999997 2.1225-2.5725 1.4475-3.8775 3.065-3.8775 4.805 0 1.6475 1 3.0325 3 4.1225 1.865 1.0275 5.1174997 2.08 9.6624997 3.13l4.56 1.05c2.78.6325 4.6575 1.155 5.5825 1.5525 1.25.54 1.8825 1.2175 1.8825 2.015 0 .675-.6125 1.3675-1.8175 2.05-1.2725.7175-3.5 1.08-6.6225 1.08-3.22 0-6.1175-.545-8.6099997-1.6225a10.125 10.125 0 0 1 -5.31-5.1l-.0925-.2-.22-.0275-2.49-.3125-.455-.0575v9.25h.4 2.48.2325l.115-.2025a2.0875 2.0875 0 0 1 .595-.695c.1225-.09.4425-.2325 1.28-.2325a7.0625 7.0625 0 0 1 .71.045h.0175c.265.0175.5475.045.8875.09l1.3675.25c1.3874997.25 2.8399997.4425 4.3174997.5625s2.925.1925 4.35.1925c6.205 0 10.7875-.75 13.62-2.2275 2.94-1.53 4.4325-3.2175 4.4325-5.0175 0-1.9175-1.3925-3.55-4.14-4.8525-1.4175-.6675-3.335-1.2825-5.6975-1.8225l-5.28-1.215c-4.3425-.9875-7.1925-1.75-8.47-2.2675-1.1475-.45-1.7025-1.0825-1.7025-1.935 0-.6825.6125-1.2925 1.815-1.8125 1.3325-.58 3.18-.8725 5.5-.8725 3.31 0 6.14.585 8.4175 1.75s3.9025 2.4925 4.8 4.07l.115.2025h2.59z" fill="#c90526" />
        <path d="m-9.4617647-20.911091-13.1100003-15.3125a4.9325 4.9325 0 0 0 -1.575-1.2675c-.5-.25-2.03-.41-3.25-.4625h-.1925v-1.25h18.1650003v1.2725h-.195a28.0525 28.0525 0 0 0 -3.5000003.235c-.5675.105-.6325.3775-.6325.5725a1.18 1.18 0 0 0 .0375.3025 1.43 1.43 0 0 0 .21.295l7.6225003 9.325h.1l6.57500004-8.52a4.87 4.87 0 0 0 .38499996-.5575 1.46 1.46 0 0 0 .265-.6825c0-.25-.0725-.575-.69999996-.695-.55-.125-1.7025-.2175-3.43750004-.275h-.1925v-1.2725h11.95v1.25h-.19c-1.3275.0675-2.915.25-3.4725.5275a4.97 4.97 0 0 0 -1.7175 1.4825l-11.6125 15.0325z" fill="#fff" fill-rule="evenodd" />
        <path d="m8.8657353-39.008591v.855c-1.25.0625-2.93.25-3.55.545a5.215 5.215 0 0 0 -1.7875 1.54l-11.555 14.95h-1.3425l-13.0500003-15.25a5.1025 5.1025 0 0 0 -1.63-1.3175c-.545-.2725-2.16-.4325-3.33-.4825v-.855h17.7500003v.905c-1.8125003.0525-3.0000003.13-3.5375003.25s-.7925.355-.7925.77a1.41 1.41 0 0 0 .0475.3725 1.6475 1.6475 0 0 0 .25.3575l7.6775003 9.395h.295l6.63500004-8.5975a5.3125 5.3125 0 0 0 .39749996-.58 1.6725 1.6725 0 0 0 .295-.785c0-.4825-.2875-.7825-.86499996-.895-.5775-.1125-1.715-.2175-3.46750004-.275v-.8775h11.55m.4025-.4025h-12.345v1.6675l.39.015c1.72000004.055 2.86250004.145 3.39000004.265.49999996.095.53999996.305.53999996.5a1.2825 1.2825 0 0 1 -.23749996.5775 4.5675 4.5675 0 0 1 -.3675.535l-6.47250004 8.3875-7.5000003-9.1875a1.235 1.235 0 0 1 -.17-.2325.9675.9675 0 0 1 -.025-.23c0-.1075 0-.29.4625-.375.515-.1025 1.6825-.18 3.4775003-.23l.39-.0125v-1.67h-18.5725003v1.6425l.385.015c1.445.0625 2.78.25 3.1675.4425a4.795 4.795 0 0 1 1.5 1.22l13.0475003 15.25.12.14h1.725l.1225-.155 11.5675-15.0025a4.7625 4.7625 0 0 1 1.6375-1.42c.4575-.22 1.855-.43 3.4-.5l.3825-.0175v-1.64z" fill="#c90526" />
      </g>
    </g>
  </g>
</svg>
