<svg height="64" width="64" xmlns="http://www.w3.org/2000/svg">
  <path d="m14.5 8c-1.385 0-2.5 1.115-2.5 2.5v45c0 1.385 1.115 2.5 2.5 2.5h35c1.385 0 2.5-1.115 2.5-2.5v-32.5l-13.75-1.25-1.25-13.75z" opacity=".2" />
  <path d="m14.5 7c-1.385 0-2.5 1.115-2.5 2.5v45c0 1.385 1.115 2.5 2.5 2.5h35c1.385 0 2.5-1.115 2.5-2.5v-32.5l-13.75-1.25-1.25-13.75z" fill="#e4e4e4" />
  <path d="m37 8v12.5c0 1.3808 1.1193 2.5 2.5 2.5h12.5z" opacity=".2" />
  <path d="m37 7v12.5c0 1.3808 1.1193 2.5 2.5 2.5h12.5z" fill="#fafafa" />
  <path d="m14.5 7c-1.385 0-2.5 1.115-2.5 2.5v1c0-1.385 1.115-2.5 2.5-2.5h22.5c0-1 0 0 0-1z" fill="#fff" opacity=".2" />
  <g stroke-width=".170808" transform="matrix(.95927683 0 0 .95927683 42.955841 15.436733)">
    <path d="m-10.545537 24.732723h.101458c.04441-.01027.08268-.01538.114784-.01538 1.2453664 0 2.2685115.438979 3.0690913 1.316937.8007522.867709 1.2011284 1.878897 1.2011284 3.035268 0 1.436506-.5942449 2.604838-1.7829022 3.505-.3113847.244252-.7179097.445807-1.2195758.599535.056879.722522.085399 1.306691.085399 1.750793 0 .08882-.011616.41165-.03484.968482-.04441 1.035103-.400205 1.930144-1.0675547 2.685119-.643949.746435-1.4447 1.118796-2.401912 1.118796-.900334 0-1.667094-.317706-2.300625-.949697-.635238-.645658-.952771-1.424543-.952771-2.336663 0-.478264.184131-.88479.552396-1.219572.377316-.331373.815782-.498765 1.315911-.498765.444786 0 .817491.172519 1.118114.517549.311385.322831.467162.722524.467162 1.200788 0 .433856-.155777.80451-.467162 1.117089-.311213.310873-.684089.466306-1.118114.466306-.177983 0-.349647-.03244-.515159-.09907.489367.722523 1.139636 1.084638 1.950978 1.084638.76676 0 1.394824-.312578 1.884191-.934324.512426-.643951.7908447-1.395505.8354257-2.252964.02135-.534633.03194-.838673.03194-.91554 0-.623453-.02221-1.134168-.06662-1.533861-.5551277.08882-1.0497897.13323-1.4839857.13323-1.546162 0-2.863782-.6132-3.952687-1.836194-1.067555-1.234944-1.601333-2.703904-1.601333-4.403448 0-.356991.03296-.717398.0989-1.084637.06748-.300623.151166-.628575.250747-.983858.05516-.201555.205483-.524384.451107-.970194.089-.13323.189084-.298915.300281-.50047.111197-.199845.189085-.333077.233495-.397984.110343-.222052.326417-.522676.648562-.90187.089-.100777.181058-.210095.276197-.333077.09514-.121276.176104-.222051.242891-.300624.06679-.07687.116492-.138355.149457-.182765.03296-.04441.283372-.339911.751217-.88479.110343-.111025.218464-.230591.324367-.358698.105901-.126399.19216-.227176.258775-.298915.06679-.07345.117003-.1264.150824-.158854-.400376-1.323767-.651125-2.379365-.752583-3.17021-.07652-.633701-.114785-1.501409-.114785-2.601418 0-.968486.222394-1.875481.66718-2.720983.432489-.876251 1.038177-1.5936473 1.817577-2.1504839.04441-.034167.09958-.051241.165513-.051241.07823 0 .134255.017084.168077.051241.599538.7225209 1.1165757 1.6619699 1.5506007 2.8183459.4447858 1.156375.6671791 2.208558.6671791 3.154838 0 1.067555-.2551892 2.068495-.7659081 3.002818-.578187.988982-1.3237647 2.012128-2.2365687 3.069434.233154.73277.544538 1.882313.934155 3.450338m1.4171974 7.758132c.5781884-.211802 1.0292953-.572209 1.3531482-1.082926.3557933-.490223.533778-1.040229.533778-1.651722 0-.790845-.2669752-1.491159-.8007522-2.104363-.5462467-.631992-1.2419517-.988982-2.0869434-1.067554.4786067 2.346908.8121967 4.316337 1.0007694 5.906565m-6.4533264-3.853443c0 1.101717.444786 2.068492 1.334359 2.903745.911094.811344 1.934067 1.216161 3.069263 1.216161.466137 0 .921684-.03244 1.3664697-.100777-.177981-1.691005-.5284817-3.713382-1.0514987-6.07225-.633529.06832-1.138782.290375-1.515928.667862-.368435.389445-.552566.828422-.552566 1.318644 0 .845501.451105 1.528734 1.353148 2.051416.07652.07857.114783.162265.114783.251084 0 .08882-.03827.172518-.114783.249384-.06764.07687-.151166.116151-.250919.116151-.01058 0-.06047-.01027-.149458-.03077-.635067-.345029-1.124434-.790843-1.467759-1.335723-.323854-.579042-.48578-1.163205-.48578-1.752496 0-.766931.239301-1.462124.717908-2.085574.499958-.621745 1.150226-1.021437 1.950979-1.200786-.311384-1.245196-.566744-2.218807-.765907-2.919122-.177983.201554-.392007.442394-.6419.725936-.250063.283543-.3973.452645-.441712.509011-.400376.522674-.706465.927491-.918096 1.217867-.379025.522674-.657444.973609-.835427 1.351097-.188573.421898-.35494.88479-.499103 1.383552-.143992.479972-.216073.99069-.216073 1.53557m5.569911-16.963018c-.834402.40994-1.490137.99923-1.967036 1.76616-.489196.790847-.733794 1.639765-.733794 2.551883 0 .801095.200016 1.878899.600391 3.236827.800754-.968485 1.401146-1.863523 1.801523-2.685114.4217257-.867708.6325027-1.774702.6325027-2.719275 0-.712273-.111195-1.427962-.3335867-2.150481" fill="#fafafa" />
    <path d="m-10.545536 23.758977h.101458c.04441-.01027.08268-.01538.114783-.01538 1.2453663 0 2.2685116.438978 3.0690914 1.316937.8007523.867708 1.2011284 1.878896 1.2011284 3.035267 0 1.436507-.5942448 2.604838-1.7829022 3.505001-.3113847.244252-.7179096.445807-1.2195758.599534.056879.722523.085399 1.306692.085399 1.750793 0 .08882-.011616.411651-.03484.968483-.044409 1.035103-.4002042 1.930144-1.0675538 2.685118-.643949.746435-1.444701 1.118796-2.401912 1.118796-.900334 0-1.667095-.317706-2.300625-.949697-.635239-.645658-.952772-1.424543-.952772-2.336663 0-.478263.184132-.88479.552397-1.219572.377316-.331372.815781-.498765 1.315911-.498765.444785 0 .81749.17252 1.118113.517549.311385.322832.467162.722525.467162 1.200788 0 .433857-.155777.804511-.467162 1.117089-.311213.310873-.684089.466306-1.118113.466306-.177983 0-.349647-.03244-.515159-.09907.489367.722524 1.139635 1.084639 1.950978 1.084639.76676 0 1.394824-.312579 1.88419-.934325.512426-.643951.7908446-1.395505.8354256-2.252963.02135-.534634.03194-.838674.03194-.915541 0-.623452-.02221-1.134167-.06662-1.53386-.5551276.08882-1.0497906.133229-1.4839866.133229-1.546162 0-2.863782-.613199-3.952687-1.836193-1.067555-1.234945-1.601332-2.703904-1.601332-4.403449 0-.356991.03296-.717397.0989-1.084636.06748-.300623.151166-.628575.250748-.983859.05516-.201555.205483-.524383.451106-.970193.089-.13323.189085-.298916.300281-.50047.111197-.199846.189086-.333077.233495-.397984.110344-.222052.326417-.522676.648563-.901871.089-.100776.181057-.210095.276197-.333077.09514-.121276.176104-.222051.242891-.300624.06679-.07687.116491-.138354.149457-.182765.03296-.04441.283372-.339911.751217-.88479.110342-.111024.218464-.230591.324366-.358697.105902-.1264.19216-.227176.258776-.298916.06679-.07345.117003-.126399.150823-.158853-.400376-1.323768-.651124-2.379365-.752583-3.170211-.07652-.6337-.114784-1.501409-.114784-2.601418 0-.968486.222394-1.875481.66718-2.720983.432488-.8762501 1.038176-1.5936466 1.817577-2.1504833.04441-.034167.09958-.051241.165512-.051241.07824 0 .134256.017084.168077.051241.599539.7225209 1.1165756 1.6619695 1.5506013 2.8183453.4447854 1.156375.6671786 2.208558.6671786 3.154838 0 1.067555-.2551892 2.068495-.7659073 3.002818-.578188.988982-1.3237656 2.012128-2.2365696 3.069435.233154.73277.544539 1.882312.934155 3.450338m1.4171973 7.758132c.5781887-.211802 1.0292956-.57221 1.3531485-1.082927.3557932-.490223.533778-1.040229.533778-1.651722 0-.790844-.2669753-1.491158-.8007523-2.104363-.5462467-.631992-1.2419509-.988982-2.0869425-1.067554.4786066 2.346909.8121966 4.316337 1.0007683 5.906566m-6.4533263-3.853444c0 1.101717.444787 2.068492 1.334359 2.903746.911095.811343 1.934068 1.21616 3.069263 1.21616.466138 0 .921684-.03244 1.3664706-.100776-.177982-1.691006-.5284816-3.713383-1.0514996-6.072251-.633529.06833-1.138781.290375-1.515928.667862-.368434.389445-.552566.828423-.552566 1.318645 0 .845501.451106 1.528733 1.353148 2.051415.07652.07857.114784.162266.114784.251085 0 .08882-.03827.172517-.114784.249384-.06764.07687-.151165.11615-.250919.11615-.01058 0-.06047-.01027-.149458-.03076-.635066-.34503-1.124434-.790844-1.467759-1.335723-.323853-.579043-.48578-1.163206-.48578-1.752496 0-.766931.239302-1.462124.717908-2.085575.499958-.621745 1.150227-1.021437 1.950979-1.200785-.311384-1.245196-.566743-2.218808-.765907-2.919123-.177983.201555-.392006.442394-.641899.725936-.250063.283544-.397301.452646-.441712.509012-.400376.522674-.706465.927491-.918097 1.217867-.379025.522674-.657443.973609-.835426 1.351096-.188573.421899-.354941.88479-.499103 1.383552-.143992.479972-.216074.99069-.216074 1.535571m5.569911-16.963019c-.834402.40994-1.490137.999231-1.967035 1.766161-.489196.790846-.733794 1.639765-.733794 2.551883 0 .801095.200016 1.878898.600391 3.236827.800753-.968486 1.401145-1.863523 1.801523-2.685114.4217256-.867709.6325026-1.774703.6325026-2.719275 0-.712274-.111196-1.427962-.3335876-2.150482" fill="#3d434a" />
  </g>
</svg>
