<svg height="64" width="64" xmlns="http://www.w3.org/2000/svg">
  <path d="m14.5 8c-1.385 0-2.5 1.115-2.5 2.5v45c0 1.385 1.115 2.5 2.5 2.5h35c1.385 0 2.5-1.115 2.5-2.5v-32.5l-13.75-1.25-1.25-13.75z" opacity=".2" />
  <path d="m14.5 7c-1.385 0-2.5 1.115-2.5 2.5v45c0 1.385 1.115 2.5 2.5 2.5h35c1.385 0 2.5-1.115 2.5-2.5v-32.5l-13.75-1.25-1.25-13.75z" fill="#e4e4e4" />
  <path d="m37 8v12.5c0 1.3808 1.1193 2.5 2.5 2.5h12.5z" opacity=".2" />
  <path d="m37 7v12.5c0 1.3808 1.1193 2.5 2.5 2.5h12.5z" fill="#fafafa" />
  <path d="m14.5 7c-1.385 0-2.5 1.115-2.5 2.5v1c0-1.385 1.115-2.5 2.5-2.5h22.5c0-1 0 0 0-1z" fill="#fff" opacity=".2" />
  <g transform="matrix(.66318408 0 0 .66318408 15.315951 21.812654)">
    <path d="m36.831 20.677c.34789-1.1576.54001-2.3784.54001-3.6448 0-7.1974-5.984-13.032-13.37-13.032-7.3836 0-13.37 5.8334-13.37 13.032 0 1.2664.19342 2.4872.54001 3.6448-1.6836 1.3182-8.2183 7.0302-5.5299 14.437 0 0 2.2743-.18976 4.1422-3.5562.56727 2.1545 1.6239 4.1116 3.0648 5.7474-2.1107.60598-3.5425 1.7813-3.5425 3.1299 0 1.9685 3.0479 3.5638 6.8059 3.5638 2.5508 0 4.7718-.73629 5.9362-1.8217.64126.08223 1.2877.13916 1.951.13916.66463 0 1.3124-.05693 1.951-.13916 1.167 1.0855 3.3867 1.8217 5.9375 1.8217 3.7593 0 6.8085-1.5966 6.8085-3.5638 0-1.3473-1.4331-2.5239-3.5438-3.1299 1.4396-1.6358 2.4988-3.5929 3.0661-5.7474 1.8667 3.3652 4.1383 3.5562 4.1383 3.5562 2.6923-7.4084-3.8424-13.12-5.5247-14.437z" fill="#4f4f4f" />
    <path d="m10.652 17.612c-.004.142-.021.27999-.021.42199 0 .97197.115 1.9139.32399 2.8239.064-.051.16-.137.21499-.179-.29299-.97997-.46798-2.0069-.51798-3.0669zm26.699.006c-.05 1.057-.22599 2.0829-.51998 3.0609.055.043.152.127.21699.179.20999-.90998.32399-1.852.32399-2.8239 0-.14-.017-.27699-.021-.41599zm-27.568 13.941c-1.868 3.366-4.1425 3.556-4.1425 3.556-.3964-1.092-.5728-2.142-.6133-3.152-.077997 1.306.084297 2.6949.61328 4.1519 0 0 2.2745-.19 4.1425-3.5559.47978 1.822 1.3268 3.4899 2.4437 4.9549.20099-.074.40399-.145.62098-.20699-1.441-1.636-2.4979-3.5939-3.0647-5.7478zm28.435 0c-.56798 2.1539-1.6269 4.1119-3.0669 5.7478.21699.062.42199.133.62298.20699 1.116-1.465 1.9639-3.1329 2.4439-4.9549 1.8659 3.3649 4.1379 3.5559 4.1379 3.5559.52998-1.458.69298-2.8479.61598-4.1539-.041 1.011-.21799 2.0609-.61598 3.1539 0 0-2.2719-.191-4.1379-3.5559zm-28.841 9.367c-.045798.167-.072297.33599-.072297.50999 0 1.9679 3.0482 3.5639 6.8061 3.5639 2.5509 0 4.7728-.73698 5.9378-1.822.64098.082 1.288.138 1.9509.138.66498 0 1.312-.056 1.9509-.138 1.166 1.085 3.386 1.822 5.937 1.822 3.7589 0 6.8078-1.597 6.8078-3.5639 0-.174-.026-.34299-.072-.50999-.45698 1.735-3.2949 3.0739-6.7358 3.0739-2.5509 0-4.7708-.73698-5.9378-1.822-.63898.082-1.286.138-1.9509.138-.66298 0-1.31-.056-1.9509-.138-1.165 1.085-3.3869 1.822-5.9378 1.822-3.4399 0-6.277-1.338-6.7338-3.0739z" opacity=".2" />
    <g fill="#fff">
      <path d="m24.001 4c-7.3837 0-13.371 5.8343-13.371 13.033 0 .195.012.38599.021.57798.23099-7.0008 6.1118-12.611 13.35-12.611 7.2418 0 13.123 5.6138 13.35 12.617.009-.19399.021-.38699.021-.58398 0-7.197-5.9848-13.033-13.371-13.033zm-13.046 16.857c-1.626 1.312-6.1525 5.4879-5.9275 11.106.31839-5.3299 4.79-9.2258 6.1425-10.285-.081-.26999-.151-.54398-.21499-.82098zm26.093 0c-.064.27699-.136.55098-.21699.82098 1.351 1.057 5.8228 4.9529 6.1408 10.283.22599-5.6158-4.2979-9.7917-5.9238-11.104zm-24.821 16.656c-1.7629.64498-2.9222 1.711-2.9222 2.9219 0 .166.029999.32899.072297.48999.31009-1.131 1.6309-2.0909 3.4709-2.6189-.22299-.25299-.41799-.52599-.62098-.79298zm23.547 0c-.20299.26699-.39999.53998-.62298.79298 1.8399.52798 3.1629 1.489 3.4729 2.6189.042-.161.072-.32399.072-.48999 0-1.21-1.159-2.2769-2.9219-2.9219z" opacity=".1" />
      <circle cx="17" cy="13" r="3" />
      <circle cx="31" cy="13" r="3" />
      <ellipse cx="24" cy="29" rx="10" ry="11" />
    </g>
    <path d="m21 16h6c-.481 4.109-3 8-3 8s-3-4.6183-3-8z" opacity=".2" />
    <circle cx="18.5" cy="14.5" fill="#303030" r="1.5" />
    <circle cx="32.5" cy="14.5" fill="#303030" r="1.5" />
    <path d="m21 15h6c-.481 4.109-3 8-3 8s-3-4.6183-3-8z" fill="#cd5252" />
    <path d="m35.507 28.853c.62835-.1301 1.2418.1102 1.5401.57085l.12562-.03202c.60225-.46541 1.4455-.8764 2.4354-1.131.99053-.25459 1.9345-.30394 2.6977-.1903 0 0 .19103-.0492.42733-.10997.23607-.06097.33343-.44678.21755-.86244l-.681-2.4471c-.11516-.41523-.3982-.70351-.63133-.64348l-.42243.10862c-.60246.4676-1.4495.88143-2.445 1.1376-.99461.25594-1.9433.30447-2.709.1887l-.08716.02225c.02855.57705-.39509 1.128-1.0418 1.3278l-6.5018 1.6523c-.175-.118-.383-.432-.434-1.255-.09-1.47-1.366-3.025-4-1.52-2.6346 1.5051-1.743 2.5323-5.7911.73999l.00013.0017c-1.3833-.71394-2.9424-.95238-4.4572-.56288-3.5927.92468-5.5732 5.0238-4.4239 9.1564 1.1498 4.132 4.995 6.7321 8.5878 5.8071.06428-.01654.12796-.0365.1914-.05518l-.000206.0021s.0243-.0073.06515-.02073c.29777-.09101.58286-.20442.85577-.33818 1.064-.48334 2.7577-1.481 3.4551-3.1516 1.0524-2.5222 3.2239-1.1053 4.4863-1.1546 1.262-.04923 1.8792-.36846 2.243-.94533 0 0-1.5387.12039-1.9801-1.4658-.35476-1.275.78021-2.4275 1.5396-2.9443l6.7363-1.8868z" opacity=".2" />
    <path d="m35.507 27.853c.62835-.1301 1.2418.1102 1.5401.57085l.12562-.03202c.60225-.46541 1.4455-.8764 2.4354-1.131.99053-.25459 1.9345-.30394 2.6977-.1903 0 0 .19103-.0492.42733-.10997.23607-.06097.33343-.44678.21755-.86244l-.681-2.4471c-.11516-.41523-.3982-.70351-.63133-.64348l-.42243.10862c-.60246.4676-1.4495.88143-2.445 1.1376-.99461.25594-1.9433.30447-2.709.1887l-.08716.02225c.02855.57705-.39509 1.128-1.0418 1.3278l-6.5018 1.6523c-.175-.118-.383-.432-.434-1.255-.09-1.47-1.366-3.025-4-1.52-2.6346 1.5051-1.743 2.5323-5.7911.73999l.00013.0017c-1.3833-.71394-2.9424-.95238-4.4572-.56288-3.5927.92468-5.5732 5.0238-4.4239 9.1564 1.1498 4.132 4.995 6.7321 8.5878 5.8071.06428-.01654.12796-.0365.1914-.05518l-.000206.0021s.0243-.0073.06515-.02073c.29777-.09101.58286-.20442.85577-.33818 1.064-.48334 2.7577-1.481 3.4551-3.1516 1.0524-2.5222 3.2239-1.1053 4.4863-1.1546 1.262-.04923 1.8792-.36846 2.243-.94533 0 0-1.5387.12039-1.9801-1.4658-.35476-1.275.78021-2.4275 1.5396-2.9443l6.7363-1.8868z" fill="#cd8652" />
    <circle cx="19" cy="31" fill="#212121" r="3" />
    <path d="m41.638 23.009-.422.109c-.603.468-1.45.881-2.446 1.137-.994.256-1.943.30499-2.709.18899l-.085.022c.02799.57701-.39702 1.128-1.043 1.328l-6.502 1.652c-.174-.117-.38199-.43101-.43197-1.254-.08997-1.47-1.3669-3.026-4.0019-1.521s-1.743 2.532-5.791.73998v.002c-1.383-.71402-2.942-.95203-4.4569-.56203-3.043.783-4.9204 3.844-4.7286 7.2731.18805-3.009 1.9856-5.5671 4.7286-6.2731 1.515-.39 3.074-.15199 4.4569.56203l.000001-.002c4.0479 1.792 3.156.76502 5.791-.73998s3.912.05102 4.0019 1.521c.04998.82301.25798 1.137.43197 1.254l6.502-1.652c.646-.2 1.071-.751 1.043-1.328l.085-.022c.76599.116 1.715.06701 2.709-.18899.996-.256 1.843-.669 2.446-1.137l.422-.109c.233-.06.51699.22901.63198.64401l.61396 2.203c.12-.154.15301-.447.06601-.75701l-.67995-2.446c-.11499-.41501-.39898-.70401-.63198-.64401zm-14.403 9.6891c-.08201.314-.10001.64501-.006.98701.18399.66001.55798 1.014.93197 1.214.493-.157.829-.398 1.049-.748 0 0-1.528.117-1.975-1.453z" fill="#fff" opacity=".2" />
  </g>
</svg>
